<svg width="2003" height="581" viewBox="0 0 2003 581" fill="none" xmlns="http://www.w3.org/2000/svg">
<line x1="4" y1="-4" x2="113.007" y2="-4" transform="matrix(0.707107 -0.707107 -0.707107 -0.707107 348.678 222.706)" stroke="#86198F" stroke-width="8" stroke-linecap="square"/>
<ellipse cx="45" cy="44.9962" rx="45" ry="44.9962" transform="matrix(-0.707107 -0.707107 -0.707107 0.707107 527.667 117.64)" fill="#86198F"/>
<line x1="384" y1="287" x2="493.017" y2="287" stroke="#86198F" stroke-width="8" stroke-linecap="square"/>
<circle cx="535.017" cy="291" r="45" transform="rotate(90 535.017 291)" fill="#86198F"/>
<line x1="355.88" y1="352.934" x2="432.96" y2="430.014" stroke="#86198F" stroke-width="8" stroke-linecap="square"/>
<ellipse cx="463.363" cy="464.003" rx="45" ry="44.9962" transform="rotate(135 463.363 464.003)" fill="#86198F"/>
<line x1="289" y1="379.983" x2="289" y2="489" stroke="#86198F" stroke-width="8" stroke-linecap="square"/>
<circle cx="290" cy="536" r="45" transform="rotate(-180 290 536)" fill="#86198F"/>
<line x1="4" y1="-4" x2="113.007" y2="-4" transform="matrix(-0.707107 0.707107 0.707107 0.707107 229.777 353.355)" stroke="#86198F" stroke-width="8" stroke-linecap="square"/>
<ellipse cx="45" cy="44.9962" rx="45" ry="44.9962" transform="matrix(0.707107 0.707107 0.707107 -0.707107 53 464.421)" fill="#86198F"/>
<line x1="196.017" y1="285" x2="87" y2="285" stroke="#86198F" stroke-width="8" stroke-linecap="square"/>
<circle cx="45" cy="291" r="45" transform="rotate(-90 45 291)" fill="#86198F"/>
<line x1="228.12" y1="229.706" x2="151.04" y2="152.626" stroke="#86198F" stroke-width="8" stroke-linecap="square"/>
<ellipse cx="116.637" cy="117.637" rx="45" ry="44.9962" transform="rotate(-45 116.637 117.637)" fill="#86198F"/>
<line x1="291" y1="197.017" x2="291" y2="88" stroke="#86198F" stroke-width="8" stroke-linecap="square"/>
<circle cx="290" cy="45" r="45" fill="#86198F"/>
<circle cx="290" cy="291" r="90" fill="#86198F"/>
<path d="M901.6 284.58L901.98 313.84C900.967 332.333 898.687 347.913 895.14 360.58C891.593 373.247 884.627 384.773 874.24 395.16C857.013 412.387 831.933 421 799 421C760.24 421 733.64 415.933 719.2 405.8C704.76 395.413 697.54 376.793 697.54 349.94V150.44H802.8C833.2 150.44 857.013 159.053 874.24 176.28C888.173 190.213 896.407 207.187 898.94 227.2C900.713 241.387 901.6 260.513 901.6 284.58ZM837.38 357.16C842.193 351.333 845.233 343.353 846.5 333.22C848.02 322.833 848.78 306.747 848.78 284.96C848.78 263.173 848.02 247.467 846.5 237.84C845.233 227.96 842.193 220.107 837.38 214.28C828.26 203.133 815.087 197.56 797.86 197.56H750.36V347.28C750.36 357.413 753.78 364.38 760.62 368.18C767.46 371.98 779.62 373.88 797.1 373.88C814.833 373.88 828.26 368.307 837.38 357.16ZM1106.49 421H1069.63L1058.23 395.16L997.428 423.28C980.455 423.28 965.635 417.073 952.968 404.66C940.555 391.993 934.348 373.627 934.348 349.56V204.02H983.748V338.92C983.748 362.987 993.375 375.02 1012.63 375.02L1057.09 351.08V204.02H1106.49V421Z" fill="#A5F3FC"/>
<path d="M1324.32 421H1287.46L1276.06 395.16L1215.26 423.28C1198.29 423.28 1183.47 417.073 1170.8 404.66C1158.39 391.993 1152.18 373.627 1152.18 349.56V204.02H1201.58V338.92C1201.58 362.987 1211.21 375.02 1230.46 375.02L1274.92 351.08V204.02H1324.32V421ZM1659.57 421H1610.17V286.1C1610.17 272.673 1608.53 263.3 1605.23 257.98C1602.19 252.66 1596.75 250 1588.89 250L1544.43 268.62V421H1495.03V286.1C1495.03 262.033 1486.67 250 1469.95 250L1429.29 268.62V421H1379.89V204.02H1416.75L1428.15 229.86L1485.15 201.74C1504.91 201.74 1519.86 211.367 1529.99 230.62L1600.67 201.74C1620.43 201.74 1635.13 208.453 1644.75 221.88C1654.63 235.053 1659.57 252.913 1659.57 275.46V421ZM1805.48 421.38L1762.54 421C1743.54 421 1729.1 415.427 1719.22 404.28C1709.6 393.133 1704.78 379.833 1704.78 364.38V135.24H1754.18V231L1813.08 203.64C1835.63 203.64 1852.22 209.72 1862.86 221.88C1872.24 232.773 1878.06 250.38 1880.34 274.7C1881.1 284.833 1881.48 297.373 1881.48 312.32C1881.48 385.027 1856.15 421.38 1805.48 421.38ZM1766.72 378.82H1791.04C1818.4 378.82 1832.08 356.653 1832.08 312.32C1832.08 289.773 1829.93 274.067 1825.62 265.2C1821.57 256.333 1812.58 251.9 1798.64 251.9L1754.18 275.84V361.34C1754.18 371.473 1758.36 377.3 1766.72 378.82ZM1950.48 121.18C1962.39 121.18 1970.11 123.08 1973.66 126.88C1977.21 130.427 1978.98 138.153 1978.98 150.06C1978.98 161.713 1977.08 169.44 1973.28 173.24C1969.73 176.787 1962.01 178.56 1950.1 178.56C1938.45 178.56 1930.72 176.66 1926.92 172.86C1923.37 169.06 1921.6 161.333 1921.6 149.68C1921.6 138.027 1923.37 130.427 1926.92 126.88C1930.72 123.08 1938.57 121.18 1950.48 121.18ZM1974.8 421H1925.4V212H1974.8V421Z" fill="white"/>
</svg>
